<svg width="56" height="56" viewBox="0 0 56 56" fill="none" xmlns="http://www.w3.org/2000/svg">
<circle cx="28" cy="28" r="27" stroke="#F48A16" stroke-width="2"/>
<path d="M32.7076 37.2925C32.8005 37.3854 32.8742 37.4957 32.9244 37.6171C32.9747 37.7385 33.0006 37.8686 33.0006 38C33.0006 38.1314 32.9747 38.2615 32.9244 38.3829C32.8742 38.5043 32.8005 38.6146 32.7076 38.7075C32.6146 38.8004 32.5043 38.8741 32.383 38.9244C32.2616 38.9747 32.1314 39.0006 32.0001 39.0006C31.8687 39.0006 31.7386 38.9747 31.6172 38.9244C31.4958 38.8741 31.3855 38.8004 31.2926 38.7075L21.2926 28.7075C21.1996 28.6146 21.1258 28.5043 21.0755 28.3829C21.0252 28.2615 20.9993 28.1314 20.9993 28C20.9993 27.8686 21.0252 27.7385 21.0755 27.6171C21.1258 27.4957 21.1996 27.3854 21.2926 27.2925L31.2926 17.2925C31.4802 17.1049 31.7347 16.9995 32.0001 16.9995C32.2654 16.9995 32.5199 17.1049 32.7076 17.2925C32.8952 17.4801 33.0006 17.7346 33.0006 18C33.0006 18.2654 32.8952 18.5199 32.7076 18.7075L23.4138 28L32.7076 37.2925Z" fill="#F48A16"/>
</svg>
