<svg width="26" height="46" viewBox="0 0 26 46" fill="none" xmlns="http://www.w3.org/2000/svg">
<path d="M25.1225 25.1225L5.12251 45.1225C4.55893 45.6861 3.79454 46.0027 2.99751 46.0027C2.20048 46.0027 1.4361 45.6861 0.872513 45.1225C0.308928 44.5589 -0.00769042 43.7945 -0.00769043 42.9975C-0.00769044 42.2005 0.308928 41.4361 0.872513 40.8725L18.75 23L0.877514 5.12251C0.598455 4.84345 0.377092 4.51216 0.226067 4.14756C0.075041 3.78295 -0.00269127 3.39216 -0.00269127 2.99751C-0.00269127 2.60286 0.075041 2.21208 0.226067 1.84747C0.377092 1.48286 0.598455 1.15157 0.877514 0.872514C1.15657 0.593455 1.48786 0.372093 1.85247 0.221067C2.21708 0.0700418 2.60786 -0.00769043 3.00251 -0.00769043C3.39716 -0.00769043 3.78795 0.0700418 4.15256 0.221067C4.51716 0.372093 4.84845 0.593455 5.12751 0.872514L25.1275 20.8725C25.4069 21.1516 25.6284 21.483 25.7794 21.8478C25.9304 22.2127 26.0078 22.6037 26.0074 22.9986C26.0069 23.3934 25.9285 23.7843 25.7767 24.1487C25.6248 24.5132 25.4025 24.8441 25.1225 25.1225Z" fill="#F48A16"/>
</svg>
