<svg width="36" height="36" viewBox="0 0 36 36" fill="none" xmlns="http://www.w3.org/2000/svg">
<path opacity="0.2" d="M19.125 18L7.875 29.25V6.75L19.125 18Z" fill="#554408"/>
<path d="M19.9209 17.204L8.67094 5.95397C8.5136 5.79646 8.31307 5.68917 8.09472 5.64569C7.87638 5.60221 7.65004 5.62449 7.44436 5.70971C7.23869 5.79493 7.06292 5.93926 6.93931 6.12443C6.81571 6.3096 6.74983 6.52728 6.75 6.74991V29.2499C6.74983 29.4725 6.81571 29.6902 6.93931 29.8754C7.06292 30.0606 7.23869 30.2049 7.44436 30.2901C7.65004 30.3753 7.87638 30.3976 8.09472 30.3541C8.31307 30.3106 8.5136 30.2034 8.67094 30.0458L19.9209 18.7958C20.0255 18.6914 20.1085 18.5673 20.1651 18.4307C20.2217 18.2941 20.2509 18.1478 20.2509 17.9999C20.2509 17.8521 20.2217 17.7057 20.1651 17.5691C20.1085 17.4325 20.0255 17.3085 19.9209 17.204ZM9 26.5344V9.46538L17.5345 17.9999L9 26.5344ZM31.1709 18.8001L19.9209 30.0501C19.7098 30.2612 19.4235 30.3798 19.125 30.3798C18.8265 30.3798 18.5402 30.2612 18.3291 30.0501C18.118 29.839 17.9994 29.5527 17.9994 29.2541C17.9994 28.9556 18.118 28.6693 18.3291 28.4582L28.7845 17.9999L18.3291 7.54585C18.118 7.33475 17.9994 7.04844 17.9994 6.74991C17.9994 6.45137 18.118 6.16507 18.3291 5.95397C18.5402 5.74288 18.8265 5.62428 19.125 5.62428C19.4235 5.62428 19.7098 5.74288 19.9209 5.95397L31.1709 17.204C31.2755 17.3085 31.3585 17.4325 31.4151 17.5691C31.4717 17.7057 31.5009 17.8521 31.5009 17.9999C31.5009 18.1478 31.4717 18.2941 31.4151 18.4307C31.3585 18.5673 31.2755 18.6914 31.1709 18.7958V18.8001Z" fill="#554408"/>
</svg>
