<svg width="36" height="37" viewBox="0 0 36 37" fill="none" xmlns="http://www.w3.org/2000/svg">
<path opacity="0.2" d="M19.125 18.5L7.875 29.75V7.25L19.125 18.5Z" fill="white"/>
<path d="M19.9209 17.704L8.67094 6.45397C8.5136 6.29646 8.31307 6.18917 8.09472 6.14569C7.87638 6.10221 7.65004 6.12449 7.44436 6.20971C7.23869 6.29493 7.06292 6.43926 6.93931 6.62443C6.81571 6.8096 6.74983 7.02728 6.75 7.24991V29.7499C6.74983 29.9725 6.81571 30.1902 6.93931 30.3754C7.06292 30.5606 7.23869 30.7049 7.44436 30.7901C7.65004 30.8753 7.87638 30.8976 8.09472 30.8541C8.31307 30.8106 8.5136 30.7034 8.67094 30.5458L19.9209 19.2958C20.0255 19.1914 20.1085 19.0673 20.1651 18.9307C20.2217 18.7941 20.2509 18.6478 20.2509 18.4999C20.2509 18.3521 20.2217 18.2057 20.1651 18.0691C20.1085 17.9325 20.0255 17.8085 19.9209 17.704ZM9 27.0344V9.96538L17.5345 18.4999L9 27.0344ZM31.1709 19.3001L19.9209 30.5501C19.7098 30.7612 19.4235 30.8798 19.125 30.8798C18.8265 30.8798 18.5402 30.7612 18.3291 30.5501C18.118 30.339 17.9994 30.0527 17.9994 29.7541C17.9994 29.4556 18.118 29.1693 18.3291 28.9582L28.7845 18.4999L18.3291 8.04585C18.118 7.83475 17.9994 7.54844 17.9994 7.24991C17.9994 6.95137 18.118 6.66507 18.3291 6.45397C18.5402 6.24288 18.8265 6.12428 19.125 6.12428C19.4235 6.12428 19.7098 6.24288 19.9209 6.45397L31.1709 17.704C31.2755 17.8085 31.3585 17.9325 31.4151 18.0691C31.4717 18.2057 31.5009 18.3521 31.5009 18.4999C31.5009 18.6478 31.4717 18.7941 31.4151 18.9307C31.3585 19.0673 31.2755 19.1914 31.1709 19.2958V19.3001Z" fill="white"/>
</svg>
