<svg width="28" height="25" viewBox="0 0 28 25" fill="none" xmlns="http://www.w3.org/2000/svg">
<path d="M25.8751 2.625C24.5165 1.26982 22.6766 0.507731 20.7577 0.505389C18.8387 0.503046 16.997 1.26064 15.6351 2.6125L14.0001 4.13125L12.3638 2.6075C11.0023 1.24976 9.15711 0.488499 7.23428 0.491195C5.31145 0.493891 3.46844 1.26032 2.1107 2.62187C0.752954 3.98343 -0.00830392 5.82858 -0.0056081 7.75141C-0.00291228 9.67425 0.763516 11.5173 2.12507 12.875L13.2938 24.2075C13.3869 24.302 13.4978 24.377 13.6201 24.4282C13.7424 24.4795 13.8737 24.5058 14.0063 24.5058C14.1389 24.5058 14.2702 24.4795 14.3925 24.4282C14.5149 24.377 14.6258 24.302 14.7188 24.2075L25.8751 12.875C27.2338 11.5155 27.997 9.67207 27.997 7.75C27.997 5.82793 27.2338 3.98451 25.8751 2.625ZM24.4563 11.47L14.0001 22.075L3.53757 11.46C2.55295 10.4754 1.9998 9.13996 1.9998 7.7475C1.9998 6.35504 2.55295 5.01962 3.53757 4.035C4.52219 3.05038 5.85761 2.49723 7.25007 2.49723C8.64253 2.49723 9.97795 3.05038 10.9626 4.035L10.9876 4.06L13.3188 6.22875C13.5039 6.40096 13.7473 6.4967 14.0001 6.4967C14.2529 6.4967 14.4963 6.40096 14.6813 6.22875L17.0126 4.06L17.0376 4.035C18.0229 3.05105 19.3586 2.49879 20.7511 2.49973C22.1436 2.50067 23.4786 3.05472 24.4626 4.04C25.4465 5.02528 25.9988 6.36108 25.9978 7.75353C25.9969 9.14599 25.4429 10.481 24.4576 11.465L24.4563 11.47Z" fill="#DCAE14"/>
</svg>
