<svg width="48" height="48" viewBox="0 0 48 48" fill="none" xmlns="http://www.w3.org/2000/svg">
<circle cx="24" cy="24" r="23" stroke="#C39A12" stroke-width="2"/>
<path d="M29.8691 24.6191L21.1191 33.3691C21.0378 33.4504 20.9413 33.5148 20.835 33.5588C20.7288 33.6028 20.615 33.6255 20.5 33.6255C20.385 33.6255 20.2712 33.6028 20.165 33.5588C20.0587 33.5148 19.9622 33.4504 19.8809 33.3691C19.7996 33.2878 19.7352 33.1913 19.6912 33.085C19.6472 32.9788 19.6245 32.865 19.6245 32.75C19.6245 32.635 19.6472 32.5212 19.6912 32.415C19.7352 32.3087 19.7996 32.2122 19.8809 32.1309L28.013 24L19.8809 15.8691C19.7167 15.7049 19.6245 15.4822 19.6245 15.25C19.6245 15.0178 19.7167 14.7951 19.8809 14.6309C20.0451 14.4668 20.2678 14.3745 20.5 14.3745C20.7322 14.3745 20.9549 14.4668 21.1191 14.6309L29.8691 23.3809C29.9504 23.4622 30.015 23.5587 30.059 23.6649C30.103 23.7711 30.1257 23.885 30.1257 24C30.1257 24.115 30.103 24.2288 30.059 24.3351C30.015 24.4413 29.9504 24.5378 29.8691 24.6191Z" fill="#C39A12"/>
</svg>
