<svg width="18" height="19" viewBox="0 0 18 19" fill="none" xmlns="http://www.w3.org/2000/svg">
<path d="M15.023 12.148C14.9707 12.2003 14.9087 12.2417 14.8404 12.2701C14.7721 12.2984 14.6989 12.3129 14.625 12.3129C14.5511 12.3129 14.4779 12.2984 14.4096 12.2701C14.3413 12.2417 14.2793 12.2003 14.227 12.148L9.00001 6.92022L3.77298 12.148C3.66743 12.2535 3.52427 12.3128 3.37501 12.3128C3.22574 12.3128 3.08259 12.2535 2.97704 12.148C2.87149 12.0424 2.81219 11.8993 2.81219 11.75C2.81219 11.6007 2.87149 11.4576 2.97704 11.352L8.60204 5.72702C8.65428 5.67472 8.71632 5.63323 8.7846 5.60492C8.85289 5.57661 8.92609 5.56204 9.00001 5.56204C9.07393 5.56204 9.14713 5.57661 9.21541 5.60492C9.2837 5.63323 9.34574 5.67472 9.39798 5.72702L15.023 11.352C15.0753 11.4043 15.1168 11.4663 15.1451 11.5346C15.1734 11.6029 15.188 11.6761 15.188 11.75C15.188 11.8239 15.1734 11.8971 15.1451 11.9654C15.1168 12.0337 15.0753 12.0957 15.023 12.148Z" fill="#DCAE14"/>
</svg>
