<svg width="18" height="19" viewBox="0 0 18 19" fill="none" xmlns="http://www.w3.org/2000/svg">
<path d="M15.023 7.64798L9.39798 13.273C9.34574 13.3253 9.2837 13.3668 9.21541 13.3951C9.14713 13.4234 9.07393 13.4379 9.00001 13.4379C8.92609 13.4379 8.85289 13.4234 8.7846 13.3951C8.71632 13.3668 8.65428 13.3253 8.60204 13.273L2.97704 7.64798C2.87149 7.54243 2.81219 7.39927 2.81219 7.25001C2.81219 7.10074 2.87149 6.95759 2.97704 6.85204C3.08259 6.74649 3.22574 6.68719 3.37501 6.68719C3.52427 6.68719 3.66743 6.74649 3.77298 6.85204L9.00001 12.0798L14.227 6.85204C14.2793 6.79978 14.3413 6.75832 14.4096 6.73004C14.4779 6.70175 14.5511 6.68719 14.625 6.68719C14.6989 6.68719 14.7721 6.70175 14.8404 6.73004C14.9087 6.75832 14.9707 6.79978 15.023 6.85204C15.0752 6.9043 15.1167 6.96634 15.145 7.03463C15.1733 7.10291 15.1878 7.1761 15.1878 7.25001C15.1878 7.32392 15.1733 7.3971 15.145 7.46539C15.1167 7.53367 15.0752 7.59571 15.023 7.64798Z" fill="#5A5756"/>
</svg>
