<svg width="22" height="23" viewBox="0 0 22 23" fill="none" xmlns="http://www.w3.org/2000/svg">
<path d="M17.875 5V19.4375C17.875 19.6198 17.8026 19.7947 17.6736 19.9236C17.5447 20.0526 17.3698 20.125 17.1875 20.125H4.8125C4.63016 20.125 4.4553 20.0526 4.32636 19.9236C4.19743 19.7947 4.125 19.6198 4.125 19.4375V5C4.125 4.81766 4.19743 4.6428 4.32636 4.51386C4.4553 4.38493 4.63016 4.3125 4.8125 4.3125H8.25C7.80279 4.90702 7.56144 5.63106 7.5625 6.375V7.0625H14.4375V6.375C14.4386 5.63106 14.1972 4.90702 13.75 4.3125H17.1875C17.3698 4.3125 17.5447 4.38493 17.6736 4.51386C17.8026 4.6428 17.875 4.81766 17.875 5Z" fill="white"/>
<path d="M17.1875 3.625H14.0714C13.6851 3.1925 13.2118 2.84645 12.6825 2.60952C12.1533 2.3726 11.5799 2.25012 11 2.25012C10.4201 2.25012 9.84674 2.3726 9.31746 2.60952C8.78817 2.84645 8.31489 3.1925 7.92859 3.625H4.8125C4.44783 3.625 4.09809 3.76986 3.84023 4.02773C3.58237 4.28559 3.4375 4.63532 3.4375 5V19.4375C3.4375 19.8022 3.58237 20.1519 3.84023 20.4098C4.09809 20.6676 4.44783 20.8125 4.8125 20.8125H17.1875C17.5522 20.8125 17.9019 20.6676 18.1598 20.4098C18.4176 20.1519 18.5625 19.8022 18.5625 19.4375V5C18.5625 4.63532 18.4176 4.28559 18.1598 4.02773C17.9019 3.76986 17.5522 3.625 17.1875 3.625ZM11 3.625C11.7293 3.625 12.4288 3.91473 12.9445 4.43045C13.4603 4.94618 13.75 5.64565 13.75 6.375H8.25C8.25 5.64565 8.53973 4.94618 9.05546 4.43045C9.57118 3.91473 10.2707 3.625 11 3.625ZM17.1875 19.4375H4.8125V5H7.11133C6.95494 5.44156 6.87502 5.90656 6.875 6.375V7.0625C6.875 7.24483 6.94743 7.4197 7.07636 7.54863C7.2053 7.67756 7.38016 7.75 7.5625 7.75H14.4375C14.6198 7.75 14.7947 7.67756 14.9236 7.54863C15.0526 7.4197 15.125 7.24483 15.125 7.0625V6.375C15.125 5.90656 15.0451 5.44156 14.8887 5H17.1875V19.4375Z" fill="#111111"/>
</svg>