<svg width="12" height="12" viewBox="0 0 12 12" fill="none" xmlns="http://www.w3.org/2000/svg">
<path d="M11.4605 10.6646C11.5128 10.7169 11.5543 10.7789 11.5825 10.8472C11.6108 10.9155 11.6254 10.9887 11.6254 11.0626C11.6254 11.1365 11.6108 11.2097 11.5825 11.2779C11.5543 11.3462 11.5128 11.4083 11.4605 11.4605C11.4083 11.5128 11.3462 11.5543 11.2779 11.5825C11.2097 11.6108 11.1365 11.6254 11.0626 11.6254C10.9887 11.6254 10.9155 11.6108 10.8472 11.5825C10.7789 11.5543 10.7169 11.5128 10.6646 11.4605L6.00007 6.7953L1.33554 11.4605C1.22999 11.5661 1.08684 11.6254 0.937569 11.6254C0.788301 11.6254 0.645148 11.5661 0.5396 11.4605C0.434052 11.355 0.374756 11.2118 0.374756 11.0626C0.374756 10.9133 0.434052 10.7701 0.5396 10.6646L5.20483 6.00007L0.5396 1.33554C0.434052 1.22999 0.374756 1.08684 0.374756 0.937569C0.374756 0.788301 0.434052 0.645148 0.5396 0.5396C0.645148 0.434052 0.788301 0.374756 0.937569 0.374756C1.08684 0.374756 1.22999 0.434052 1.33554 0.5396L6.00007 5.20483L10.6646 0.5396C10.7701 0.434052 10.9133 0.374756 11.0626 0.374756C11.2118 0.374756 11.355 0.434052 11.4605 0.5396C11.5661 0.645148 11.6254 0.788301 11.6254 0.937569C11.6254 1.08684 11.5661 1.22999 11.4605 1.33554L6.7953 6.00007L11.4605 10.6646Z" fill="#C39A12"/>
</svg>
