<svg width="16" height="16" viewBox="0 0 16 16" fill="none" xmlns="http://www.w3.org/2000/svg">
<path d="M15.471 14.2188C15.5407 14.2885 15.5959 14.3712 15.6337 14.4623C15.6714 14.5533 15.6908 14.6509 15.6908 14.7494C15.6908 14.848 15.6714 14.9456 15.6337 15.0366C15.5959 15.1277 15.5407 15.2104 15.471 15.2801C15.4013 15.3497 15.3186 15.405 15.2275 15.4427C15.1365 15.4804 15.0389 15.4999 14.9404 15.4999C14.8418 15.4999 14.7442 15.4804 14.6532 15.4427C14.5621 15.405 14.4794 15.3497 14.4097 15.2801L8.19036 9.05975L1.97098 15.2801C1.83025 15.4208 1.63938 15.4999 1.44036 15.4999C1.24134 15.4999 1.05046 15.4208 0.909733 15.2801C0.769003 15.1393 0.689941 14.9485 0.689941 14.7494C0.689941 14.5504 0.769003 14.3595 0.909733 14.2188L7.13005 7.99944L0.909733 1.78007C0.769003 1.63933 0.689941 1.44846 0.689941 1.24944C0.689941 1.05042 0.769003 0.859546 0.909733 0.718815C1.05046 0.578085 1.24134 0.499023 1.44036 0.499023C1.63938 0.499023 1.83025 0.578085 1.97098 0.718815L8.19036 6.93913L14.4097 0.718815C14.5505 0.578085 14.7413 0.499023 14.9404 0.499023C15.1394 0.499023 15.3303 0.578085 15.471 0.718815C15.6117 0.859546 15.6908 1.05042 15.6908 1.24944C15.6908 1.44846 15.6117 1.63933 15.471 1.78007L9.25067 7.99944L15.471 14.2188Z" fill="#0D0C0C"/>
</svg>
