<svg width="22" height="28" viewBox="0 0 22 28" fill="none" xmlns="http://www.w3.org/2000/svg">
<path d="M16 17.5C16 17.7652 15.8946 18.0196 15.7071 18.2071C15.5196 18.3946 15.2652 18.5 15 18.5H7C6.73478 18.5 6.48043 18.3946 6.29289 18.2071C6.10536 18.0196 6 17.7652 6 17.5C6 17.2348 6.10536 16.9804 6.29289 16.7929C6.48043 16.6054 6.73478 16.5 7 16.5H15C15.2652 16.5 15.5196 16.6054 15.7071 16.7929C15.8946 16.9804 16 17.2348 16 17.5ZM15 12.5H7C6.73478 12.5 6.48043 12.6054 6.29289 12.7929C6.10536 12.9804 6 13.2348 6 13.5C6 13.7652 6.10536 14.0196 6.29289 14.2071C6.48043 14.3946 6.73478 14.5 7 14.5H15C15.2652 14.5 15.5196 14.3946 15.7071 14.2071C15.8946 14.0196 16 13.7652 16 13.5C16 13.2348 15.8946 12.9804 15.7071 12.7929C15.5196 12.6054 15.2652 12.5 15 12.5ZM22 4.5V25.5C22 26.0304 21.7893 26.5391 21.4142 26.9142C21.0391 27.2893 20.5304 27.5 20 27.5H2C1.46957 27.5 0.960859 27.2893 0.585786 26.9142C0.210714 26.5391 0 26.0304 0 25.5V4.5C0 3.96957 0.210714 3.46086 0.585786 3.08579C0.960859 2.71072 1.46957 2.5 2 2.5H6.5325C7.09438 1.87091 7.78279 1.36757 8.55266 1.02295C9.32254 0.678326 10.1565 0.500183 11 0.500183C11.8435 0.500183 12.6775 0.678326 13.4473 1.02295C14.2172 1.36757 14.9056 1.87091 15.4675 2.5H20C20.5304 2.5 21.0391 2.71072 21.4142 3.08579C21.7893 3.46086 22 3.96957 22 4.5ZM7 6.5H15C15 5.43914 14.5786 4.42172 13.8284 3.67157C13.0783 2.92143 12.0609 2.5 11 2.5C9.93913 2.5 8.92172 2.92143 8.17157 3.67157C7.42143 4.42172 7 5.43914 7 6.5ZM20 4.5H16.6562C16.8837 5.14227 17 5.81864 17 6.5V7.5C17 7.76522 16.8946 8.01957 16.7071 8.20711C16.5196 8.39464 16.2652 8.5 16 8.5H6C5.73478 8.5 5.48043 8.39464 5.29289 8.20711C5.10536 8.01957 5 7.76522 5 7.5V6.5C5.00002 5.81864 5.11627 5.14227 5.34375 4.5H2V25.5H20V4.5Z" fill="#DCAE14"/>
</svg>
