<svg width="19" height="14" viewBox="0 0 19 14" fill="none" xmlns="http://www.w3.org/2000/svg">
<path d="M18.1899 7C18.1899 7.19891 18.1109 7.38968 17.9703 7.53033C17.8296 7.67098 17.6389 7.75 17.4399 7.75H0.939941C0.741029 7.75 0.550264 7.67098 0.409611 7.53033C0.268959 7.38968 0.189941 7.19891 0.189941 7C0.189941 6.80109 0.268959 6.61032 0.409611 6.46967C0.550264 6.32902 0.741029 6.25 0.939941 6.25H17.4399C17.6389 6.25 17.8296 6.32902 17.9703 6.46967C18.1109 6.61032 18.1899 6.80109 18.1899 7ZM0.939941 1.75H17.4399C17.6389 1.75 17.8296 1.67098 17.9703 1.53033C18.1109 1.38968 18.1899 1.19891 18.1899 1C18.1899 0.801088 18.1109 0.610322 17.9703 0.46967C17.8296 0.329018 17.6389 0.25 17.4399 0.25H0.939941C0.741029 0.25 0.550264 0.329018 0.409611 0.46967C0.268959 0.610322 0.189941 0.801088 0.189941 1C0.189941 1.19891 0.268959 1.38968 0.409611 1.53033C0.550264 1.67098 0.741029 1.75 0.939941 1.75ZM17.4399 12.25H0.939941C0.741029 12.25 0.550264 12.329 0.409611 12.4697C0.268959 12.6103 0.189941 12.8011 0.189941 13C0.189941 13.1989 0.268959 13.3897 0.409611 13.5303C0.550264 13.671 0.741029 13.75 0.939941 13.75H17.4399C17.6389 13.75 17.8296 13.671 17.9703 13.5303C18.1109 13.3897 18.1899 13.1989 18.1899 13C18.1899 12.8011 18.1109 12.6103 17.9703 12.4697C17.8296 12.329 17.6389 12.25 17.4399 12.25Z" fill="#FAFAFA"/>
</svg>
