<svg width="19" height="14" viewBox="0 0 19 14" fill="none" xmlns="http://www.w3.org/2000/svg">
<path d="M18.1904 7C18.1904 7.19891 18.1114 7.38968 17.9708 7.53033C17.8301 7.67098 17.6393 7.75 17.4404 7.75H0.94043C0.741517 7.75 0.550752 7.67098 0.4101 7.53033C0.269447 7.38968 0.19043 7.19891 0.19043 7C0.19043 6.80109 0.269447 6.61032 0.4101 6.46967C0.550752 6.32902 0.741517 6.25 0.94043 6.25H17.4404C17.6393 6.25 17.8301 6.32902 17.9708 6.46967C18.1114 6.61032 18.1904 6.80109 18.1904 7ZM0.94043 1.75H17.4404C17.6393 1.75 17.8301 1.67098 17.9708 1.53033C18.1114 1.38968 18.1904 1.19891 18.1904 1C18.1904 0.801088 18.1114 0.610322 17.9708 0.46967C17.8301 0.329018 17.6393 0.25 17.4404 0.25H0.94043C0.741517 0.25 0.550752 0.329018 0.4101 0.46967C0.269447 0.610322 0.19043 0.801088 0.19043 1C0.19043 1.19891 0.269447 1.38968 0.4101 1.53033C0.550752 1.67098 0.741517 1.75 0.94043 1.75ZM17.4404 12.25H0.94043C0.741517 12.25 0.550752 12.329 0.4101 12.4697C0.269447 12.6103 0.19043 12.8011 0.19043 13C0.19043 13.1989 0.269447 13.3897 0.4101 13.5303C0.550752 13.671 0.741517 13.75 0.94043 13.75H17.4404C17.6393 13.75 17.8301 13.671 17.9708 13.5303C18.1114 13.3897 18.1904 13.1989 18.1904 13C18.1904 12.8011 18.1114 12.6103 17.9708 12.4697C17.8301 12.329 17.6393 12.25 17.4404 12.25Z" fill="#0D0C0C"/>
</svg>
