<svg width="22" height="23" viewBox="0 0 22 23" fill="none" xmlns="http://www.w3.org/2000/svg">
<path d="M19.9375 9.64062C19.9375 15.3125 11 20.125 11 20.125C11 20.125 2.0625 15.3125 2.0625 9.64062C2.0625 8.40985 2.55142 7.22949 3.42171 6.35921C4.29199 5.48892 5.47235 5 6.70312 5C8.64445 5 10.3073 6.05789 11 7.75C11.6927 6.05789 13.3555 5 15.2969 5C16.5276 5 17.708 5.48892 18.5783 6.35921C19.4486 7.22949 19.9375 8.40985 19.9375 9.64062Z" fill="white"/>
<path d="M15.2969 4.3125C13.5223 4.3125 11.9685 5.07562 11 6.36555C10.0315 5.07562 8.47773 4.3125 6.70312 4.3125C5.29051 4.31409 3.9362 4.87596 2.93733 5.87483C1.93846 6.8737 1.37659 8.22801 1.375 9.64062C1.375 15.6562 10.2945 20.5255 10.6743 20.7266C10.7744 20.7804 10.8863 20.8086 11 20.8086C11.1137 20.8086 11.2256 20.7804 11.3257 20.7266C11.7055 20.5255 20.625 15.6562 20.625 9.64062C20.6234 8.22801 20.0615 6.8737 19.0627 5.87483C18.0638 4.87596 16.7095 4.31409 15.2969 4.3125ZM11 19.3344C9.43078 18.42 2.75 14.2546 2.75 9.64062C2.75136 8.59261 3.16829 7.58791 3.90935 6.84685C4.65041 6.10579 5.65511 5.68886 6.70312 5.6875C8.37461 5.6875 9.77797 6.57781 10.3641 8.00781C10.4159 8.13391 10.504 8.24176 10.6172 8.31766C10.7304 8.39356 10.8637 8.43409 11 8.43409C11.1363 8.43409 11.2696 8.39356 11.3828 8.31766C11.496 8.24176 11.5841 8.13391 11.6359 8.00781C12.222 6.57523 13.6254 5.6875 15.2969 5.6875C16.3449 5.68886 17.3496 6.10579 18.0907 6.84685C18.8317 7.58791 19.2486 8.59261 19.25 9.64062C19.25 14.2477 12.5675 18.4191 11 19.3344Z" fill="#111111"/>
</svg>