<svg width="22" height="23" viewBox="0 0 22 23" fill="none" xmlns="http://www.w3.org/2000/svg">
<path d="M18.5625 11.1875V19.4375H13.0625V13.9375H8.9375V19.4375H3.4375V11.1875C3.43743 11.0972 3.45515 11.0077 3.48966 10.9243C3.52416 10.8408 3.57477 10.765 3.63859 10.7011L10.5136 3.82609C10.5774 3.76216 10.6533 3.71145 10.7367 3.67686C10.8202 3.64226 10.9097 3.62445 11 3.62445C11.0903 3.62445 11.1798 3.64226 11.2633 3.67686C11.3467 3.71145 11.4226 3.76216 11.4864 3.82609L18.3614 10.7011C18.4252 10.765 18.4758 10.8408 18.5103 10.9243C18.5448 11.0077 18.5626 11.0972 18.5625 11.1875Z" fill="white"/>
<path d="M18.847 10.2147L11.972 3.3397C11.7141 3.08203 11.3645 2.93729 11 2.93729C10.6355 2.93729 10.2859 3.08203 10.0281 3.3397L3.15306 10.2147C3.02475 10.342 2.92305 10.4936 2.85386 10.6606C2.78467 10.8276 2.74937 11.0067 2.75001 11.1875V19.4375C2.75001 19.6198 2.82244 19.7947 2.95137 19.9236C3.0803 20.0526 3.25517 20.125 3.43751 20.125H8.93751C9.11984 20.125 9.29471 20.0526 9.42364 19.9236C9.55258 19.7947 9.62501 19.6198 9.62501 19.4375V14.625H12.375V19.4375C12.375 19.6198 12.4474 19.7947 12.5764 19.9236C12.7053 20.0526 12.8802 20.125 13.0625 20.125H18.5625C18.7448 20.125 18.9197 20.0526 19.0486 19.9236C19.1776 19.7947 19.25 19.6198 19.25 19.4375V11.1875C19.2507 11.0067 19.2154 10.8276 19.1462 10.6606C19.077 10.4936 18.9753 10.342 18.847 10.2147ZM17.875 18.75H13.75V13.9375C13.75 13.7552 13.6776 13.5803 13.5486 13.4514C13.4197 13.3224 13.2448 13.25 13.0625 13.25H8.93751C8.75517 13.25 8.5803 13.3224 8.45137 13.4514C8.32244 13.5803 8.25001 13.7552 8.25001 13.9375V18.75H4.12501V11.1875L11 4.31251L17.875 11.1875V18.75Z" fill="#111111"/>
</svg>
