<svg width="18" height="18" viewBox="0 0 18 18" fill="none" xmlns="http://www.w3.org/2000/svg">
<path d="M16.9422 16.0578L13.0305 12.1469C14.1642 10.7857 14.7296 9.03983 14.6089 7.27244C14.4883 5.50506 13.6909 3.85223 12.3826 2.65779C11.0744 1.46334 9.35597 0.819256 7.58492 0.859506C5.81388 0.899756 4.12653 1.62125 2.87389 2.87389C1.62125 4.12653 0.899756 5.81388 0.859506 7.58492C0.819256 9.35597 1.46334 11.0744 2.65779 12.3826C3.85223 13.6909 5.50506 14.4883 7.27244 14.6089C9.03983 14.7296 10.7857 14.1642 12.1469 13.0305L16.0578 16.9422C16.1159 17.0003 16.1848 17.0463 16.2607 17.0777C16.3366 17.1092 16.4179 17.1253 16.5 17.1253C16.5821 17.1253 16.6634 17.1092 16.7393 17.0777C16.8152 17.0463 16.8841 17.0003 16.9422 16.9422C17.0003 16.8841 17.0463 16.8152 17.0777 16.7393C17.1092 16.6634 17.1253 16.5821 17.1253 16.5C17.1253 16.4179 17.1092 16.3366 17.0777 16.2607C17.0463 16.1848 17.0003 16.1159 16.9422 16.0578ZM2.125 7.75C2.125 6.63748 2.4549 5.54994 3.07298 4.62491C3.69106 3.69989 4.56957 2.97892 5.5974 2.55317C6.62524 2.12743 7.75624 2.01604 8.84738 2.23308C9.93852 2.45012 10.9408 2.98585 11.7275 3.77252C12.5141 4.55919 13.0499 5.56147 13.2669 6.65261C13.484 7.74376 13.3726 8.87476 12.9468 9.90259C12.5211 10.9304 11.8001 11.8089 10.8751 12.427C9.95005 13.0451 8.86252 13.375 7.75 13.375C6.25866 13.3733 4.82888 12.7802 3.77435 11.7256C2.71981 10.6711 2.12665 9.24133 2.125 7.75Z" fill="#5A5756"/>
</svg>
