<svg width="36" height="35" viewBox="0 0 36 35" fill="none" xmlns="http://www.w3.org/2000/svg">
<path d="M17.375 25.3438C17.5639 25.4518 17.7777 25.5086 17.9953 25.5086C18.2129 25.5086 18.4267 25.4518 18.6156 25.3438C18.9984 25.1235 27.9906 19.875 27.9906 10.5078C27.9121 7.90987 26.8251 5.44456 24.96 3.6343C23.0949 1.82404 20.5983 0.811075 17.9991 0.810059C15.3999 0.809044 12.9025 1.82005 11.036 3.62885C9.1695 5.43766 8.08058 7.90212 8 10.5C8 19.875 16.9969 25.1157 17.375 25.3438ZM18 6.75003C18.7417 6.75003 19.4667 6.96996 20.0834 7.38202C20.7001 7.79407 21.1807 8.37974 21.4645 9.06496C21.7484 9.75019 21.8226 10.5042 21.6779 11.2316C21.5333 11.959 21.1761 12.6272 20.6517 13.1517C20.1272 13.6761 19.459 14.0333 18.7316 14.178C18.0042 14.3227 17.2502 14.2484 16.5649 13.9646C15.8797 13.6807 15.294 13.2001 14.882 12.5834C14.4699 11.9667 14.25 11.2417 14.25 10.5C14.25 9.50546 14.6451 8.55164 15.3483 7.84838C16.0516 7.14511 17.0054 6.75003 18 6.75003ZM35.5 26.75C35.5 31.6219 26.4828 34.25 18 34.25C9.51719 34.25 0.5 31.6219 0.5 26.75C0.5 24.4703 2.56562 22.4516 6.31719 21.0672C6.62484 20.9656 6.95994 20.9874 7.25184 21.128C7.54374 21.2686 7.76963 21.5171 7.88188 21.821C7.99414 22.125 7.98399 22.4606 7.85358 22.7572C7.72316 23.0539 7.48267 23.2882 7.18281 23.411C4.60313 24.3657 3 25.6438 3 26.75C3 28.8375 8.70625 31.75 18 31.75C27.2938 31.75 33 28.8375 33 26.75C33 25.6438 31.3969 24.3657 28.8172 23.4125C28.5173 23.2898 28.2768 23.0554 28.1464 22.7588C28.016 22.4622 28.0059 22.1265 28.1181 21.8226C28.2304 21.5187 28.4563 21.2702 28.7482 21.1296C29.0401 20.9889 29.3752 20.9671 29.6828 21.0688C33.4344 22.4516 35.5 24.4703 35.5 26.75Z" fill="#F4C116"/>
</svg>
