<svg width="20" height="15" viewBox="0 0 20 15" fill="none" xmlns="http://www.w3.org/2000/svg">
<path d="M11.125 1.75V10C11.1262 11.1931 11.6007 12.337 12.4444 13.1806C13.288 14.0243 14.4319 14.4988 15.625 14.5C15.8239 14.5 16.0147 14.421 16.1553 14.2803C16.296 14.1397 16.375 13.9489 16.375 13.75C16.375 13.5511 16.296 13.3603 16.1553 13.2197C16.0147 13.079 15.8239 13 15.625 13C14.8294 13 14.0663 12.6839 13.5037 12.1213C12.9411 11.5587 12.625 10.7956 12.625 10V9.25H18.25C18.6478 9.25 19.0294 9.09196 19.3107 8.81066C19.592 8.52936 19.75 8.14782 19.75 7.75V1.75C19.75 1.35218 19.592 0.970644 19.3107 0.68934C19.0294 0.408035 18.6478 0.25 18.25 0.25H12.625C12.2272 0.25 11.8456 0.408035 11.5643 0.68934C11.283 0.970644 11.125 1.35218 11.125 1.75ZM1.75 0.25H7.375C7.77282 0.25 8.15436 0.408035 8.43566 0.68934C8.71696 0.970644 8.875 1.35218 8.875 1.75V7.75C8.875 8.14782 8.71696 8.52936 8.43566 8.81066C8.15436 9.09196 7.77282 9.25 7.375 9.25H1.75V10C1.75 10.7956 2.06607 11.5587 2.62868 12.1213C3.19129 12.6839 3.95435 13 4.75 13C4.94891 13 5.13968 13.079 5.28033 13.2197C5.42098 13.3603 5.5 13.5511 5.5 13.75C5.5 13.9489 5.42098 14.1397 5.28033 14.2803C5.13968 14.421 4.94891 14.5 4.75 14.5C3.55691 14.4988 2.41303 14.0243 1.56939 13.1806C0.725744 12.337 0.251242 11.1931 0.25 10V1.75C0.25 1.35218 0.408035 0.970644 0.689341 0.68934C0.970644 0.408035 1.35217 0.25 1.75 0.25Z" fill="#F4C116"/>
</svg>
