<svg width="22" height="23" viewBox="0 0 22 23" fill="none" xmlns="http://www.w3.org/2000/svg">
<path d="M19.7365 8.63858L7.7637 20.6114C7.63479 20.7402 7.45999 20.8126 7.27773 20.8126C7.09547 20.8126 6.92067 20.7402 6.79175 20.6114L2.2637 16.0859C2.13487 15.957 2.0625 15.7822 2.0625 15.6C2.0625 15.4177 2.13487 15.2429 2.2637 15.114L14.2365 3.13858C14.3654 3.00975 14.5402 2.93738 14.7225 2.93738C14.9048 2.93738 15.0796 3.00975 15.2085 3.13858L19.7365 7.66405C19.8007 7.72793 19.8516 7.80386 19.8864 7.88748C19.9211 7.9711 19.939 8.06076 19.939 8.15132C19.939 8.24187 19.9211 8.33153 19.8864 8.41515C19.8516 8.49877 19.8007 8.5747 19.7365 8.63858Z" fill="white"/>
<path d="M20.2227 7.18024L15.6947 2.65305C15.567 2.52534 15.4154 2.42403 15.2486 2.35491C15.0817 2.28579 14.9029 2.25021 14.7223 2.25021C14.5417 2.25021 14.3629 2.28579 14.196 2.35491C14.0292 2.42403 13.8776 2.52534 13.7499 2.65305L1.77711 14.625C1.64939 14.7527 1.54808 14.9043 1.47896 15.0711C1.40984 15.238 1.37427 15.4168 1.37427 15.5974C1.37427 15.778 1.40984 15.9568 1.47896 16.1237C1.54808 16.2905 1.64939 16.4421 1.77711 16.5698L6.30515 21.097C6.43284 21.2247 6.58443 21.326 6.75127 21.3951C6.91812 21.4642 7.09694 21.4998 7.27754 21.4998C7.45813 21.4998 7.63696 21.4642 7.8038 21.3951C7.97064 21.326 8.12224 21.2247 8.24992 21.097L20.2227 9.12501C20.3504 8.99732 20.4518 8.84573 20.5209 8.67888C20.59 8.51204 20.6256 8.33322 20.6256 8.15262C20.6256 7.97203 20.59 7.7932 20.5209 7.62636C20.4518 7.45952 20.3504 7.30793 20.2227 7.18024ZM7.27711 20.125L2.74992 15.597L5.49992 12.847L7.76351 15.1114C7.82739 15.1753 7.90322 15.226 7.98668 15.2605C8.07014 15.2951 8.15959 15.3129 8.24992 15.3129C8.34025 15.3129 8.4297 15.2951 8.51316 15.2605C8.59662 15.226 8.67245 15.1753 8.73633 15.1114C8.8002 15.0475 8.85087 14.9717 8.88544 14.8882C8.92001 14.8048 8.9378 14.7153 8.9378 14.625C8.9378 14.5347 8.92001 14.4452 8.88544 14.3618C8.85087 14.2783 8.8002 14.2025 8.73633 14.1386L6.47187 11.875L8.24992 10.097L10.5135 12.3614C10.6425 12.4904 10.8175 12.5629 10.9999 12.5629C11.1824 12.5629 11.3573 12.4904 11.4863 12.3614C11.6153 12.2324 11.6878 12.0574 11.6878 11.875C11.6878 11.6926 11.6153 11.5176 11.4863 11.3886L9.22187 9.12501L10.9999 7.34696L13.2635 9.61141C13.3274 9.67529 13.4032 9.72596 13.4867 9.76053C13.5701 9.7951 13.6596 9.81289 13.7499 9.81289C13.8403 9.81289 13.9297 9.7951 14.0132 9.76053C14.0966 9.72596 14.1725 9.67529 14.2363 9.61141C14.3002 9.54754 14.3509 9.4717 14.3854 9.38825C14.42 9.30479 14.4378 9.21534 14.4378 9.12501C14.4378 9.03467 14.42 8.94522 14.3854 8.86176C14.3509 8.77831 14.3002 8.70248 14.2363 8.6386L11.9719 6.37501L14.7219 3.62501L19.2499 8.15305L7.27711 20.125Z" fill="#111111"/>
</svg>