<svg width="7" height="14" viewBox="0 0 7 14" fill="none" xmlns="http://www.w3.org/2000/svg">
<path d="M6.64792 12.227C6.70018 12.2792 6.74164 12.3413 6.76992 12.4096C6.79821 12.4779 6.81277 12.551 6.81277 12.6249C6.81277 12.6989 6.79821 12.772 6.76992 12.8403C6.74164 12.9086 6.70018 12.9707 6.64792 13.0229C6.59566 13.0752 6.53362 13.1166 6.46533 13.1449C6.39705 13.1732 6.32386 13.1878 6.24995 13.1878C6.17604 13.1878 6.10286 13.1732 6.03457 13.1449C5.96629 13.1166 5.90425 13.0752 5.85198 13.0229L0.226985 7.39792C0.174686 7.34567 0.133197 7.28364 0.10489 7.21535C0.0765821 7.14706 0.0620117 7.07387 0.0620117 6.99995C0.0620117 6.92603 0.0765821 6.85283 0.10489 6.78454C0.133197 6.71626 0.174686 6.65422 0.226985 6.60198L5.85198 0.976978C5.95753 0.87143 6.10069 0.812134 6.24995 0.812134C6.39922 0.812134 6.54237 0.87143 6.64792 0.976978C6.75347 1.08253 6.81277 1.22568 6.81277 1.37495C6.81277 1.52421 6.75347 1.66737 6.64792 1.77292L1.42019 6.99995L6.64792 12.227Z" fill="#C39A12"/>
</svg>
