<svg width="30" height="24" viewBox="0 0 30 24" fill="none" xmlns="http://www.w3.org/2000/svg">
<path d="M25.9999 7.6V5.5C25.9999 4.17392 25.4731 2.90215 24.5354 1.96447C23.5977 1.02678 22.326 0.5 20.9999 0.5H8.99989C7.6738 0.5 6.40203 1.02678 5.46435 1.96447C4.52667 2.90215 3.99989 4.17392 3.99989 5.5V7.6C2.8696 7.82952 1.85341 8.44273 1.12351 9.33574C0.393605 10.2288 -0.00512695 11.3466 -0.00512695 12.5C-0.00512695 13.6534 0.393605 14.7712 1.12351 15.6643C1.85341 16.5573 2.8696 17.1705 3.99989 17.4V21.5C3.99989 22.0304 4.2106 22.5391 4.58567 22.9142C4.96074 23.2893 5.46945 23.5 5.99989 23.5H23.9999C24.5303 23.5 25.039 23.2893 25.4141 22.9142C25.7892 22.5391 25.9999 22.0304 25.9999 21.5V17.4C27.1302 17.1705 28.1464 16.5573 28.8763 15.6643C29.6062 14.7712 30.0049 13.6534 30.0049 12.5C30.0049 11.3466 29.6062 10.2288 28.8763 9.33574C28.1464 8.44273 27.1302 7.82952 25.9999 7.6ZM8.99989 2.5H20.9999C21.7955 2.5 22.5586 2.81607 23.1212 3.37868C23.6838 3.94129 23.9999 4.70435 23.9999 5.5V7.6C22.8713 7.83205 21.8572 8.44613 21.1285 9.3387C20.3999 10.2313 20.0013 11.3478 19.9999 12.5H9.99989C9.99848 11.3478 9.59986 10.2313 8.87122 9.3387C8.14259 8.44613 7.12849 7.83205 5.99989 7.6V5.5C5.99989 4.70435 6.31596 3.94129 6.87857 3.37868C7.44117 2.81607 8.20424 2.5 8.99989 2.5ZM25.0486 15.5H24.9999C24.7347 15.5 24.4803 15.6054 24.2928 15.7929C24.1052 15.9804 23.9999 16.2348 23.9999 16.5V21.5H5.99989V16.5C5.99989 16.2348 5.89453 15.9804 5.70699 15.7929C5.51946 15.6054 5.2651 15.5 4.99989 15.5H4.95114C4.35996 15.4904 3.78481 15.3063 3.29792 14.9709C2.81102 14.6355 2.4341 14.1636 2.2145 13.6147C1.99489 13.0657 1.94239 12.4641 2.0636 11.8854C2.1848 11.3067 2.4743 10.7767 2.89573 10.362C3.31716 9.94735 3.85174 9.66643 4.43231 9.55457C5.01289 9.44272 5.61357 9.5049 6.15891 9.73333C6.70426 9.96175 7.16994 10.3462 7.49748 10.8385C7.82502 11.3307 7.99981 11.9087 7.99989 12.5V17.5C7.99989 17.7652 8.10524 18.0196 8.29278 18.2071C8.48032 18.3946 8.73467 18.5 8.99989 18.5C9.2651 18.5 9.51946 18.3946 9.70699 18.2071C9.89453 18.0196 9.99989 17.7652 9.99989 17.5V14.5H19.9999V17.5C19.9999 17.7652 20.1052 18.0196 20.2928 18.2071C20.4803 18.3946 20.7347 18.5 20.9999 18.5C21.2651 18.5 21.5195 18.3946 21.707 18.2071C21.8945 18.0196 21.9999 17.7652 21.9999 17.5V12.5C22 11.9087 22.1747 11.3307 22.5023 10.8385C22.8298 10.3462 23.2955 9.96175 23.8409 9.73333C24.3862 9.5049 24.9869 9.44272 25.5675 9.55457C26.148 9.66643 26.6826 9.94735 27.104 10.362C27.5255 10.7767 27.815 11.3067 27.9362 11.8854C28.0574 12.4641 28.0049 13.0657 27.7853 13.6147C27.5657 14.1636 27.1887 14.6355 26.7019 14.9709C26.215 15.3063 25.6398 15.4904 25.0486 15.5Z" fill="#DCAE14"/>
</svg>
