<svg width="14" height="14" viewBox="0 0 14 14" fill="none" xmlns="http://www.w3.org/2000/svg">
<path d="M13.6431 6.67811L10.8306 9.10499L11.6875 12.7344C11.7348 12.9314 11.7226 13.138 11.6525 13.3281C11.5824 13.5182 11.4576 13.6833 11.2937 13.8025C11.1299 13.9216 10.9344 13.9896 10.7319 13.9977C10.5294 14.0058 10.3291 13.9538 10.1562 13.8481L7 11.9056L3.84187 13.8481C3.66902 13.9532 3.46894 14.0047 3.26684 13.9963C3.06473 13.9879 2.86964 13.9198 2.70613 13.8008C2.54261 13.6817 2.41798 13.5169 2.34794 13.3271C2.27789 13.1374 2.26556 12.9311 2.3125 12.7344L3.1725 9.10499L0.359999 6.67811C0.20706 6.54593 0.0964523 6.37162 0.0419882 6.17696C-0.0124758 5.98229 -0.00838189 5.77589 0.0537586 5.58353C0.115899 5.39118 0.233332 5.22139 0.391392 5.09538C0.549452 4.96937 0.741134 4.89271 0.942499 4.87499L4.63 4.57749L6.0525 1.13499C6.1295 0.947376 6.26054 0.786895 6.42898 0.673951C6.59742 0.561007 6.79564 0.500702 6.99844 0.500702C7.20124 0.500702 7.39945 0.561007 7.56789 0.673951C7.73633 0.786895 7.86738 0.947376 7.94437 1.13499L9.36625 4.57749L13.0537 4.87499C13.2555 4.89205 13.4478 4.96828 13.6064 5.09412C13.765 5.21996 13.883 5.38981 13.9455 5.5824C14.0081 5.77499 14.0124 5.98175 13.9579 6.17677C13.9034 6.37179 13.7926 6.54641 13.6394 6.67874L13.6431 6.67811Z" fill="white"/>
</svg>
